<svg version="1.2" baseProfile="tiny" viewBox="0 0 17.999 15.540" xmlns:xlink="http://www.w3.org/1999/xlink" xmlns="http://www.w3.org/2000/svg">
<path style="fill:#ffffff;" d="M9.054,3.368H4.646c-0.269,0-0.487-0.218-0.487-0.487s0.218-0.487,0.487-0.487h4.407
		c0.269,0,0.487,0.218,0.487,0.487S9.322,3.368,9.054,3.368z M5.55,4.252H4.624c-0.269,0-0.487,0.218-0.487,0.487
		c0,0.269,0.218,0.487,0.487,0.487H5.55c0.269,0,0.487-0.218,0.487-0.487C6.036,4.47,5.818,4.252,5.55,4.252z M7.99,4.252H7.064
		c-0.269,0-0.487,0.218-0.487,0.487c0,0.269,0.218,0.487,0.487,0.487H7.99c0.269,0,0.487-0.218,0.487-0.487
		C8.477,4.47,8.259,4.252,7.99,4.252z M9.469,5.237h0.926c0.269,0,0.487-0.218,0.487-0.487s-0.218-0.487-0.487-0.487H9.469
		c-0.269,0-0.487,0.218-0.487,0.487S9.2,5.237,9.469,5.237z M5.55,6.112H4.624c-0.269,0-0.487,0.218-0.487,0.487
		s0.218,0.487,0.487,0.487H5.55c0.269,0,0.487-0.218,0.487-0.487S5.818,6.112,5.55,6.112z M7.99,6.112H7.064
		c-0.269,0-0.487,0.218-0.487,0.487s0.218,0.487,0.487,0.487H7.99c0.269,0,0.487-0.218,0.487-0.487S8.259,6.112,7.99,6.112z
		 M5.55,7.971H4.624c-0.269,0-0.487,0.218-0.487,0.487c0,0.269,0.218,0.487,0.487,0.487H5.55c0.269,0,0.487-0.218,0.487-0.487
		C6.036,8.189,5.818,7.971,5.55,7.971z M12.479,14.484H2.551V0.978h9.929v5.939c0.367,0.211,0.694,0.48,0.973,0.794V0.491
		c0-0.269-0.218-0.487-0.487-0.487H2.064c-0.269,0-0.487,0.218-0.487,0.487v14.48c0,0.269,0.218,0.487,0.487,0.487h10.902
		c0.269,0,0.487-0.218,0.487-0.487v-0.234l-0.973-0.908V14.484z M16.281,15.381c-0.096,0.103-0.226,0.155-0.355,0.155
		c-0.119,0-0.238-0.043-0.332-0.131L12.43,12.45c-0.505,0.431-1.151,0.701-1.865,0.701c-1.592,0-2.887-1.295-2.887-2.888
		s1.295-2.888,2.887-2.888c1.593,0,2.888,1.295,2.888,2.888c0,0.526-0.152,1.013-0.398,1.438l3.204,2.991
		C16.454,14.877,16.465,15.184,16.281,15.381z M12.479,10.264c0-1.056-0.859-1.915-1.915-1.915c-1.055,0-1.914,0.859-1.914,1.915
		s0.859,1.915,1.914,1.915C11.62,12.179,12.479,11.32,12.479,10.264z"/>
</svg>