<svg version="1.2" baseProfile="tiny" viewBox="0 0 16.000 18.000" xmlns:xlink="http://www.w3.org/1999/xlink" xmlns="http://www.w3.org/2000/svg">
<path style="fill:#ffffff;" d="M2.545,3.253c0,0,0.077-1.17-0.55-1.787c0,0-0.69,0.026-0.69,1.787H2.545z M6.254,13.525l5.832-0.013   c0,0,0.013-9.553-0.089-10.941C11.882,1.17,10.283,1.26,10.283,1.26L3.338,1.273C3.888,1.8,3.812,3.639,3.812,3.639v10.093   c0,0-0.013,2.43,1.394,2.88C6.612,17.062,6.254,13.525,6.254,13.525z M7.61,14.824c0,0-0.025,1.157-0.422,1.929l6.126-0.039   c0,0,1.394,0.09,1.445-1.89H7.61z M3.083,16.213c-0.051-0.077-0.55-1.234-0.55-2.212l0.026-9.526H0.141C0.077,4.423,0,3.42,0,3.253   C0,2.134,0.039,0,3.172,0h7.648c1.509,0,2.545,1.363,2.545,3.407l0.013,10.131h2.52C16,13.886,16,14.182,16,14.605   C16,16.495,14.964,18,13.378,18H5.653c-0.499,0-0.934-0.193-1.203-0.348c-0.141-0.077-0.256-0.154-0.256-0.154   c-0.051-0.025-0.089-0.063-0.141-0.103c-0.089-0.077-0.192-0.154-0.281-0.244c-0.077-0.077-0.153-0.154-0.23-0.244   c-0.051-0.064-0.103-0.142-0.167-0.219C3.274,16.534,3.172,16.38,3.083,16.213z"/>
</svg>