<svg version="1.2" baseProfile="tiny" viewBox="0 0 17.337 18.000" xmlns:xlink="http://www.w3.org/1999/xlink" xmlns="http://www.w3.org/2000/svg">
<path style="fill:#ffffff;" d="M1.366,1.363h3.646v5.545h5.405v4.181   c0.491,0.531,0.974,1.39,1.363,1.829V5.241l-0.196-0.476L7.094,0.204L6.609,0H0v15.75h3.226c0-0.37,0-1.099,0-1.364H1.366V1.363z    M6.379,1.418l4.039,4.124H6.379V1.418z M17.337,14.713c0,0.525-0.405,0.972-0.931,0.972c-0.413,0-0.741-0.236-0.888-0.568h-4.545   l-0.292-0.495L10.17,18H9.186l-0.826-5.064l-0.564,2.181H4.208v-0.808H7.09L8.023,9.29l0.784,0.003l0.844,6.191l0.473-2.205   l0.727,0.028l0.587,1.001h4.085c0.149-0.315,0.475-0.526,0.884-0.526C16.932,13.782,17.337,14.187,17.337,14.713z"/>
</svg>