<svg version="1.2" baseProfile="tiny" viewBox="0 0 18 17.942" xmlns:xlink="http://www.w3.org/1999/xlink" xmlns="http://www.w3.org/2000/svg">
<path style="fill:#ffffff;" d="M 17.596154,12.057692 H 14.826923 V 8.9999998 c 0,-0.230769 -0.173077,-0.403846 -0.461538,-0.461538 H 4.211538 v -2.711539 h 2.884616 c 0.230769,0 0.461538,-0.173077 0.461538,-0.461538 V 0.4615384 C 7.557692,0.2307692 7.384615,0 7.096154,0 H 0.5192308 C 0.2307692,0 0.0576923,0.1730769 0.0576923,0.4615384 v 4.9615384 c 0,0.230769 0.1730769,0.461539 0.4615385,0.461539 h 2.826923 V 12.115385 H 0.4615385 c -0.2307693,0 -0.4038462,0.173077 -0.4615385,0.403846 0,0 0,0 0,0 v 4.961538 c 0.057692,0.23077 0.2307692,0.403847 0.4615385,0.403847 0,0 0,0 0,0 H 7.038462 c 0.230769,0 0.403846,-0.173077 0.461538,-0.403847 0,0 0,0 0,0 v -4.961538 c 0,-0.230769 -0.173077,-0.403846 -0.403846,-0.461539 0,0 0,0 0,0 H 4.211538 V 9.4038458 h 9.807693 v 2.6538462 h -3 c -0.230769,0 -0.461539,0.173077 -0.461539,0.461539 v 4.961538 c 0,0.23077 0.173077,0.461539 0.461539,0.461539 h 6.576923 C 17.826923,17.942308 18,17.769231 18,17.480769 v -4.961538 c 0,-0.230769 -0.173077,-0.461539 -0.403846,-0.461539 z M 0.9230769,0.8653846 H 6.634615 V 4.9615388 H 0.9230769 Z M 6.634615,17.019231 H 0.9230769 V 12.923077 H 6.634615 Z m 10.5,0 h -5.711538 v -4.096154 h 5.711538 z"/>
</svg>