<svg version="1.2" baseProfile="tiny" viewBox="0 0 18 18" xmlns:xlink="http://www.w3.org/1999/xlink" xmlns="http://www.w3.org/2000/svg">
<path style="fill:#ffffff;" d="M7.26207,13.90346v2.85518a.42427.42427,0,0,1-.41379.43448q-.01035.00026-.02069,0H1.24139a.42427.42427,0,0,1-.43448-.4138q-.00026-.01033,
		0-.02068V11.17243a.42426.42426,0,0,1,.4138-.43448q.01033-.00025.02068,0H4.531l.869-.8069H1.24139A1.245,1.245,0,0,0,0,
		11.17243v5.58621A1.245,1.245,0,0,0,1.24139,18h5.5862A1.245,1.245,0,0,0,8.069,16.75864v-3.6l-.74483.68276a.06079.06079,0,0,
		0-.06207.05948Z   M16.75861,0h-5.5862A1.245,1.245,0,0,0,9.931,1.2414V4.96553l.8069-.12413V1.17933a.42427.42427,0,0,1,.41379-.43449q.01035-.00024.02069,0h5.5862a.42427.42427,0,
		0,1,.43448.4138q.00025.01034,0,.02069v5.5862a.42428.42428,0,0,1-.4138.43449q-.01033.00024-.02068,0H13.5931l-.18621.80689h3.35172A1.245,1.245,0,0,0,18,
		6.76553V1.17933A1.23383,1.23383,0,0,0,16.75861,0Z   M11.731,6.41174V10.6945a.17614.17614,0,0,
		1-.04345.10552l-.87517.91862a.1557.1557,0,0,1-.2669-.11173V8.4476L5.10208,13.89105a.15377.15377,0,0,1-.211,0l-.70758-.70759a.15.15,0,0,
		1-.0051-.21214l.0051-.0051L9.70758,7.44208H6.37449A.1553.1553,0,0,1,6.269,7.17519L7.18759,6.3a.17606.17606,0,0,1,.10552-.04345h4.28275A.14976.14976,0,0,
		1,11.68137,6.3a.1303.1303,0,0,1,.03725.04965A.22054.22054,0,0,1,11.731,6.41174Z"/>
</svg>