<svg version="1.2" baseProfile="tiny" viewBox="0 0 18.000 13.446" xmlns:xlink="http://www.w3.org/1999/xlink" xmlns="http://www.w3.org/2000/svg">
<path style="fill:#ffffff;" d="M18,13.446l-7.363-0.555c-0.269,0.146-0.529,0.257-0.785,0.333   c-0.26,0.075-0.509,0.114-0.748,0.114c-0.246,0-0.509-0.039-0.792-0.114c-0.281-0.076-0.58-0.187-0.901-0.333L0,13.446V2.074   L1.449,1.71c0,3.403,0,6.808,0,10.211c2.146-0.171,4.298-0.341,6.446-0.512c0.534,0.677,1.721,0.639,2.255-0.009   c2.116,0.171,4.322,0.379,6.398,0.496c0-3.426,0-6.851,0-10.274L18,1.983V13.446L18,13.446z M2.273,0.495c0,3.291,0,6.581,0,9.872   c1.198-0.212,2.279-0.44,3.503-0.44c1.001,0,1.732,0.152,2.201,0.459c0.341,0.223,0.58,0.555,0.714,0.995H8.7V1.063   C8.451,0.748,8.152,0.511,7.803,0.35C7.295,0.118,6.594,0,5.702,0C5.187,0,4.633,0.043,4.043,0.132   C3.483,0.213,2.895,0.334,2.273,0.495L2.273,0.495z M9.263,1.086v10.31c0.232-0.979,1.2-1.469,2.903-1.469   c0.457,0,0.964,0.036,1.52,0.101c0.374,0.046,0.746,0.105,1.117,0.173l0.918,0.16c-0.002-3.285-0.002-6.571-0.002-9.855   c-0.638-0.168-1.232-0.291-1.782-0.373C13.37,0.043,12.85,0,12.374,0c-0.928,0-1.657,0.121-2.188,0.358   C9.812,0.526,9.504,0.769,9.263,1.086z"/>
</svg>