<svg version="1.2" baseProfile="tiny" viewBox="0 0 17.999 18.000" xmlns:xlink="http://www.w3.org/1999/xlink" xmlns="http://www.w3.org/2000/svg">
<path style="fill:#ffffff;" d="M13.524,18H4.47c-0.663,0-0.564-1.064,0-1.064s0.408,0,1.179,0c0.767,0,0.864-0.929,1.021-2.397   h4.665c0.144,1.469,0.252,2.397,1.022,2.397c0.755,0,0.611,0,1.167,0C14.088,16.936,14.196,18,13.524,18z M17.999,1.172v11.505   c0,0.639-0.533,1.171-1.177,1.171H1.179C0.524,13.848,0,13.315,0,12.677V1.172C0,0.524,0.524,0,1.179,0h15.644   C17.466,0,17.999,0.524,17.999,1.172z M16.708,1.461c0-0.154-0.125-0.283-0.282-0.283H1.572c-0.154,0-0.283,0.129-0.283,0.283   v10.926c0,0.152,0.129,0.28,0.283,0.28h14.854c0.157,0,0.282-0.128,0.282-0.28V1.461z"/>
</svg>