<svg version="1.2" baseProfile="tiny" viewBox="0 0 18.000 14.000" xmlns:xlink="http://www.w3.org/1999/xlink" xmlns="http://www.w3.org/2000/svg">
<path style="fill:#ffffff;" d="M17.807,0.263C17.645,0.076,17.452,0,17.178,0v0.002H0.823V0C0.546,0,0.357,0.076,0.192,0.263   C0.039,0.436,0,0.604,0,0.82v12.374h0.001c0,0.262,0.081,0.447,0.246,0.601l-0.002,0.002C0.419,13.954,0.595,14,0.806,14h16.39   c0.208,0,0.384-0.044,0.556-0.201c0.164-0.15,0.247-0.341,0.247-0.604H18V0.82C18,0.604,17.959,0.436,17.807,0.263z M17.123,12.59   h-0.004c0,0.238-0.072,0.41-0.221,0.545c-0.156,0.143-0.314,0.184-0.502,0.184H1.604c-0.188,0-0.35-0.043-0.505-0.186h0.002   c-0.149-0.139-0.223-0.308-0.223-0.543H0.877V1.424c0-0.196,0.035-0.35,0.174-0.504c0.148-0.17,0.32-0.238,0.568-0.238v0.002h14.762   V0.682c0.247,0,0.42,0.068,0.566,0.238c0.139,0.154,0.176,0.308,0.176,0.504V12.59z M15.023,2.378   c0.104,0.116,0.132,0.232,0.132,0.382v8.207h-0.001c0,0.182-0.057,0.311-0.169,0.413c-0.117,0.107-0.237,0.139-0.379,0.139H3.394   c-0.144,0-0.264-0.032-0.384-0.139l0.003-0.002c-0.112-0.104-0.168-0.232-0.168-0.411H2.844V2.76c0-0.149,0.027-0.266,0.131-0.382   C3.087,2.25,3.218,2.197,3.407,2.197v0.001h11.186V2.197C14.78,2.197,14.912,2.25,15.023,2.378z M9.225,12.088   c0.008,0.009,0.01,0.019,0.01,0.03v0.436c0,0.016-0.005,0.026-0.015,0.034c-0.009,0.009-0.018,0.011-0.029,0.011h-0.64   c-0.012,0-0.021-0.003-0.031-0.011c-0.009-0.009-0.013-0.019-0.013-0.034v-0.436c0-0.012,0.002-0.021,0.011-0.03   c0.009-0.01,0.02-0.015,0.035-0.015h0.637C9.204,12.073,9.214,12.078,9.225,12.088z"/>
</svg>