<svg version="1.2" baseProfile="tiny" viewBox="0 0 18.000 18.000" xmlns:xlink="http://www.w3.org/1999/xlink" xmlns="http://www.w3.org/2000/svg">
<path style="fill:#ffffff;" d="M9,0C4.037,0,0,4.037,0,9s4.037,9,9,9s9-4.037,9-9S13.963,0,9,0z M15.03,14.889   c-0.203,0.188-0.467,0.385-0.565,0.229c-0.049-0.078,0.278-0.696,0.286-0.828c0.02-0.349-0.064-0.701-0.083-1.046   c-0.021-0.388,0.125-0.527,0.198-0.879c0.087-0.423-0.328-0.519-0.369-0.877c-0.04-0.354,0.388-0.622-0.273-0.51   c0.011-0.422-0.479-0.274-0.68-0.149c-0.147,0.092-0.125,0.191-0.341,0.24c-0.13,0.029-0.282-0.028-0.412-0.035   c-0.049,0.247-0.544,0.285-0.761,0.205c-0.269-0.099-0.361-0.407-0.5-0.629c-0.117-0.186-0.45-0.423-0.516-0.625   c-0.087-0.271,0.083-0.819,0.138-1.09c0.059-0.293,0.099-0.682,0.294-0.92c0.268-0.325,0.438-0.245,0.512-0.701   c0.075-0.475,0.039-0.492,0.45-0.637c0.271-0.096,0.558-0.119,0.836-0.209c0.354-0.114,0.426-0.225,0.784-0.032   c0.304,0.164,0.418,0.366,0.763,0.412c-0.004,0.013,0.093-0.091,0.088-0.088c-0.363-0.65,1.529-0.321,0.675-1.211   c-0.223-0.232-0.673,0.06-0.763-0.294c-0.092-0.363,0.439-0.49,0.412-0.829c-0.981-0.202-0.77,0.367-0.621,1.086   c0.001,0-0.034,0.061-0.073,0.03c-0.329,0.143-0.479-0.698-0.838-0.445c-0.122,0.085,0.526,0.372,0.487,0.697   c-0.307-0.157-0.813-0.71-1.176-0.55c-0.471,0.206-0.282,1.349-0.657,1.267c-0.131-0.029-1.125-0.421-0.714-0.841   c0.154-0.156,0.597,0.02,0.661-0.299c0.056-0.271-0.339-0.349-0.519-0.44c0.331-0.283,0.731-0.474,0.577-0.964   c0.046-0.011,0.269-0.031,0.288-0.048c0.279-0.23,0.428-0.375,0.291-0.798c-0.067-0.207-0.439-0.686-0.66-0.291   c-0.167,0.3,0.559,0.487,0.359,0.828c-0.132,0.223-0.763,0.05-0.901-0.087c-0.228-0.222-0.117-0.625-0.137-0.91   c-0.013-0.176-0.17-0.279,0-0.45c0.116-0.118,0.333,0.016,0.461-0.051c0.846-0.439-1.034-0.634-0.711-1.003   c0,0,0.106-0.087,0.205-0.167c2.371,0.747,4.295,2.513,5.252,4.784c-0.115,0.022-0.363,0.077-0.395,0.076   c0.32,0.273,0.532,0.309,0.684,0.727c0.032,0.104,0.055,0.21,0.081,0.315c0.058,0.316,0.067,0.708-0.066,0.939   C16.841,7.6,16.79,7.35,16.62,7.098C16.355,6.705,16.241,6.8,16.35,7.222c0.075,0.297,0.417,1.456,0.817,0.883   c0.169,0.564,0.233,1.091,0.234,1.594C17.235,11.711,16.362,13.524,15.03,14.889z M10.883,4.065   c-0.101-0.09-0.229-0.045-0.231-0.229C10.65,3.687,10.7,3.681,10.799,3.606l-0.063,0.104c0.188-0.251,0.246-0.12,0.271-0.126   c0.021,0.106-0.012,0.209,0.084,0.313c0.074,0.082,0.097,0.12,0.167,0.209c0.131,0.163-0.022,0.596-0.272,0.519   C10.738,4.55,11.061,4.225,10.883,4.065z M10.442,4.107h-0.021c0.035,0.001,0.106,0.004,0.163-0.017   c0.092,0.143,0.209,0.326,0.025,0.482C10.379,4.771,10.352,4.5,10.55,4.358C10.482,4.297,10.231,4.18,10.442,4.107z M4.868,16.348   c-0.147-0.15-0.276-0.336-0.404-0.49c-0.344-0.419-0.561-0.757-0.647-1.313c-0.06-0.382-0.049-0.709-0.334-0.991   c-0.4-0.396-0.748-0.653-0.969-1.192c-0.128-0.314-0.379-0.752-0.392-1.082c-0.015-0.354,0.296-0.643,0.229-1.004   c-0.06-0.327-0.443-0.515-0.543-0.836c-0.05-0.162-0.01-0.338-0.043-0.502C1.721,8.71,1.63,8.712,1.469,8.566   C1.33,8.442,1.294,8.322,1.285,8.143c-0.01-0.2-0.028-0.239-0.12-0.423c-0.168-0.338-0.087-0.621,0-0.957   c0.075-0.29,0.037-0.648,0.036-0.972c0.841-2.035,2.454-3.672,4.475-4.542C5.55,1.558,5.4,1.992,5.901,1.991   c0.227,0,0.143,0.026,0.333,0.135c0.188,0.108,0.258-0.051,0.444-0.093c0.204-0.045,0.529,0.289,0.466,0.511   c-0.068,0.239-0.554,0.7-0.825,0.523C6.092,2.92,6.405,2.757,6.345,2.581C6.27,2.361,6.01,2.617,5.886,2.67   C5.525,2.826,5.11,2.673,4.839,3.021C4.53,3.415,4.901,3.749,5.278,3.438C5.426,3.316,5.58,3.105,5.76,3.036   c0.259-0.101,0.224,0.057,0.246,0.252c0.018,0.159,0.093,0.137,0.151,0.275C6.215,3.7,6.148,3.827,6.235,3.982   c0.137,0.243,0.305,0.448-0.063,0.56C6.001,4.594,5.921,4.565,5.76,4.511C5.663,4.478,5.454,4.377,5.357,4.458   C5.23,4.564,5.389,4.71,5.472,4.818c0.106,0.141,0.169,0.205,0.159,0.395C5.442,5.229,5.341,5.23,5.17,5.2   C4.894,5.151,4.991,5.286,4.798,5.425C4.64,5.538,4.49,5.462,4.317,5.486C4.062,5.522,4.107,5.664,4.02,5.843   C3.848,6.191,3.343,6.259,3.167,6.596c-0.106,0.205-0.01,0.908-0.266,0.988C2.599,7.679,2.706,6.886,2.666,6.722   c-0.08-0.326-0.54-0.285-0.79-0.121C1.639,6.756,1.425,7.186,1.41,7.453c-0.008,0.142,0.006,0.339,0.19,0.319   C1.737,7.758,1.812,7.528,1.929,7.49C1.943,7.484,1.967,7.451,1.98,7.44c0.09,0.068,0.214,0.313,0.184,0.431   C2.122,8.039,1.877,8.084,1.892,8.289c0.011,0.167,0.21,0.228,0.23,0.396c0.02,0.159-0.098,0.323-0.084,0.503   c0.026,0.355,0.248,0.622,0.606,0.438C2.897,9.498,3.315,9.35,3.539,9.654c0.102,0.138,0.043,0.244,0.26,0.303   c0.205,0.056,0.292-0.044,0.435,0.151c0.206,0.279,0.33,0.613,0.711,0.686c0.248,0.047,0.217,0.02,0.36,0.235   c0.098,0.146,0.205,0.284,0.313,0.416c0.093,0.114,0.202,0.24,0.329,0.32c0.063,0.039,0.135,0.05,0.194,0.093   c0.078,0.059,0.093,0.128,0.156,0.179c0.271,0.218,0.685,0.141,0.951,0.303c0.135,0.082,0.157,0.233,0.303,0.304   c0.135,0.063,0.396,0.073,0.546,0.081c-0.017,0.2,0.004,0.31-0.086,0.472c-0.09,0.161-0.177,0.311-0.24,0.487   c-0.11,0.31-0.029,0.747-0.197,1.019c-0.209,0.337-0.625,0.08-0.916,0.153c-0.213,0.054-0.298,0.258-0.418,0.437   c-0.133,0.198-0.223,0.244-0.418,0.372c-0.226,0.148-0.467,0.675-0.355,0.968c-0.017,0.001-0.031-0.004-0.047-0.004   C5.233,16.54,5.048,16.449,4.868,16.348z"/>
</svg>