<?xml version="1.0" encoding="UTF-8"?>
<svg id="Layer_2" data-name="Layer 2" xmlns="http://www.w3.org/2000/svg" width="177.271" height="189.98" viewBox="0 0 177.271 189.98">
  <defs>
    <style>
      .cls-1 {
        fill-rule: evenodd;
      }

      .cls-1, .cls-2 {
        fill: #55ffdf;
      }
    </style>
  </defs>
  <g id="Layer_1-2" data-name="Layer 1">
    <g>
      <path class="cls-2" d="M51.638,9.516C66.699,2.223,83.193-.847,99.422,.199c2.629,.17,2.663,.101,5.271,.486l-1.011,18.448c-16.405-2.213-28.928-.911-44.246,6.508l-7.798-16.125h0Z"/>
      <path class="cls-2" d="M105.214,72.083c-7.322-3.676-15.44-4.036-22.647-1.646-7.208,2.389-13.503,7.528-17.179,14.85s-4.036,15.44-1.646,22.648c.37,1.117,.807,2.213,1.307,3.28l2.44-1.204c-.445-.954-.835-1.933-1.166-2.932-2.17-6.546-1.843-13.921,1.496-20.571,3.339-6.651,9.057-11.318,15.603-13.489,6.546-2.17,13.921-1.843,20.571,1.496,6.651,3.339,11.318,9.057,13.489,15.603,2.17,6.546,1.843,13.921-1.496,20.571-3.339,6.651-9.057,11.319-15.603,13.489-6.546,2.17-13.921,1.843-20.571-1.495-4.782-2.401-8.538-6.031-11.079-10.315l-2.434,1.226c2.798,4.787,6.968,8.846,12.292,11.52,7.322,3.676,15.441,4.036,22.648,1.646,7.207-2.389,13.503-7.528,17.179-14.85,3.676-7.322,4.035-15.441,1.646-22.648-2.389-7.207-7.528-13.503-14.85-17.179h0Z"/>
      <path class="cls-1" d="M99.746,76.327c-11.647-4.329-26.057,1.967-29.821,13.836l.438,.185c-.758,2.128-1.397,4.053-1.487,6.25l-1.927,.092c-.319,5.69,1.557,13.342,5.8,17.82,0,0,1.534-1.426,1.734-1.228,2.535,2.522,4.761,4.239,7.978,5.507,.163,.064-.176,.845,0,.918,1.627,.669,4.202,1.461,5.727,1.47,.028,0-.134,1.509-.107,1.513,6.783,1.03,13.133-.391,18.407-4.816,0,0-.864-1.215-.687-1.328,3.035-1.932,6.126-5.681,7.788-10.708l-.72-.256c.745-1.597,1.122-4.047,1.208-5.835,.004-.085,2.231-.198,2.231-.198,.943-5.059-1.929-13.949-6.203-17.495-.028-.023-1.513,1.103-1.513,1.103-2.101-2.162-5.125-4.822-8.052-5.757l.172-.746-.967-.328h0Zm-20.157,7.735c-4.056,3.251-6.411,7.838-6.939,12.627-.528,4.789,.771,9.779,4.021,13.835,3.251,4.056,7.838,6.411,12.627,6.939,4.789,.528,9.779-.77,13.835-4.021,4.056-3.251,6.411-7.838,6.939-12.627,.528-4.789-.771-9.779-4.021-13.835-3.251-4.056-7.838-6.411-12.626-6.939-4.789-.528-9.779,.771-13.835,4.021h0Zm-1.711,13.203c.012-.112,.026-.224,.041-.335l14.592-11.694c.112,.009,.224,.02,.336,.033,.062,.007,.125,.014,.186,.022l-15.175,12.161c.006-.062,.012-.125,.019-.187h0Zm.076-.576c.028-.184,.06-.368,.095-.551l13.66-10.947c.187,.005,.373,.014,.559,.026l-14.314,11.471h0Zm.149-.805c.042-.196,.089-.392,.14-.586l12.603-10.101c.201-.008,.403-.011,.604-.009l-13.347,10.696h0Zm.214-.859c.061-.213,.127-.426,.198-.636l11.386-9.125c.221-.024,.442-.042,.663-.055l-12.247,9.816h0Zm.301-.927c.085-.233,.176-.463,.273-.692l9.963-7.988c.245-.046,.49-.085,.737-.117l-10.973,8.796h0Zm.42-1.022c.107-.233,.221-.464,.342-.691l8.385-6.716c.244-.067,.489-.127,.735-.18l-9.463,7.587h0Zm.586-1.13c.159-.273,.327-.542,.506-.805l6.265-5.015c.309-.122,.62-.231,.935-.329l-7.706,6.149h0Zm.842-1.279c.345-.465,.723-.911,1.134-1.335l2.689-2.156c.506-.31,1.025-.583,1.556-.819l-5.378,4.31h0Zm12.796-5.345c.165,.023,.329,.05,.492,.079l-6.15,4.928c-.704,.315-1.38,.723-2.01,1.228-.63,.505-1.176,1.076-1.636,1.694l-6.149,4.928c.007-.166,.017-.332,.03-.498l15.423-12.359h0Zm.708,.119c.156,.031,.312,.064,.467,.1l-5.325,4.267c-.325,.082-.647,.181-.965,.299l5.823-4.666h0Zm.671,.149c.149,.037,.296,.076,.443,.118l-4.857,3.892c-.249,.031-.497,.071-.744,.122l5.158-4.133h0Zm.638,.175c.141,.043,.282,.087,.423,.135l-4.535,3.634c-.211,.004-.423,.016-.634,.035l4.746-3.803h0Zm.609,.199c.133,.047,.266,.097,.399,.148l-4.294,3.442c-.185-.013-.371-.02-.557-.022l4.453-3.568h0Zm.576,.218c.131,.053,.262,.109,.392,.166l-4.104,3.289c-.126-.019-.253-.036-.379-.05-.047-.005-.093-.01-.139-.014l4.231-3.391h0Zm.562,.242c.124,.057,.248,.116,.371,.177l-3.954,3.168c-.156-.036-.314-.068-.471-.096l4.055-3.249h0Zm.533,.259c.119,.061,.238,.124,.355,.189l-3.831,3.07c-.145-.045-.291-.086-.438-.123l3.913-3.136h0Zm.511,.276c.114,.065,.228,.132,.341,.201l-3.729,2.989c-.135-.052-.272-.101-.409-.146l3.797-3.043h0Zm.491,.293c.11,.069,.219,.139,.327,.212l-3.646,2.922c-.126-.058-.254-.114-.383-.167l3.702-2.967h0Zm.471,.309c.104,.072,.208,.145,.311,.22l-3.578,2.868c-.118-.064-.237-.125-.357-.184l3.624-2.904h0Zm.449,.322c.101,.075,.2,.152,.299,.23l-3.522,2.823c-.111-.069-.223-.136-.336-.201l3.56-2.852h0Zm.431,.336c.096,.079,.192,.158,.286,.24l-3.478,2.787c-.104-.074-.21-.146-.316-.216l3.508-2.811h0Zm.413,.351c.092,.082,.184,.165,.275,.249l-3.443,2.759c-.098-.079-.197-.156-.298-.231l3.466-2.777h0Zm.397,.364c.088,.085,.176,.171,.263,.258l-3.417,2.739c-.092-.084-.186-.165-.28-.245l3.434-2.752h0Zm.379,.377c.085,.088,.169,.177,.252,.267l-3.401,2.725c-.086-.088-.174-.175-.262-.259l3.411-2.734h0Zm.363,.391c.087,.098,.174,.197,.259,.297l-3.391,2.717c-.087-.1-.175-.197-.265-.293l3.397-2.722h0Zm.365,.425c.039,.047,.078,.095,.116,.143,.044,.055,.087,.11,.13,.165l-3.39,2.717c-.042-.055-.085-.111-.13-.165-.039-.048-.077-.095-.117-.142l3.39-2.717h0Zm.347,.439c.079,.105,.157,.211,.233,.318l-3.397,2.722c-.073-.109-.149-.216-.227-.322l3.391-2.718h0Zm.329,.453c.075,.109,.149,.218,.221,.328l-3.413,2.735c-.067-.114-.136-.226-.208-.337l3.401-2.726h0Zm.311,.468c.071,.112,.141,.224,.208,.338l-3.439,2.756c-.06-.119-.123-.236-.189-.353l3.42-2.741h0Zm.293,.482c.066,.116,.131,.232,.194,.349l-3.474,2.784c-.053-.124-.109-.247-.169-.369l3.448-2.763h0Zm.274,.498c.063,.119,.123,.239,.182,.359l-3.52,2.82c-.047-.129-.096-.258-.148-.386l3.486-2.794h0Zm.255,.513c.056,.12,.111,.241,.164,.362l-3.577,2.866c-.038-.132-.078-.264-.122-.395l3.535-2.834h0Zm.232,.52c.05,.119,.098,.238,.144,.358l-3.645,2.919c-.029-.132-.06-.264-.096-.395l3.597-2.882h0Zm.206,.521c.046,.122,.089,.245,.131,.369l-3.728,2.988c-.021-.139-.045-.278-.072-.417l3.669-2.94h0Zm.187,.537c.041,.126,.08,.253,.117,.38l-3.829,3.069c-.012-.146-.027-.292-.045-.437l3.757-3.011h0Zm.167,.553c.036,.13,.071,.261,.102,.391l-3.952,3.167c0-.154-.006-.308-.015-.462l3.865-3.097h0Zm.145,.57c.032,.136,.061,.272,.088,.409l-4.104,3.289c.011-.165,.018-.331,.021-.496l3.995-3.202h0Zm.124,.594c.025,.137,.048,.275,.069,.412l-4.29,3.438c.018-.12,.034-.241,.047-.362,.006-.052,.011-.104,.016-.157l4.158-3.332h0Zm.097,.602c.02,.144,.037,.288,.053,.431l-4.531,3.631c.046-.189,.085-.379,.12-.569l4.358-3.493h0Zm.072,.628c.013,.149,.025,.298,.033,.447l-4.853,3.889c.074-.209,.141-.42,.199-.633l4.62-3.702h0Zm.044,.652c.006,.154,.01,.309,.012,.464l-5.317,4.261c.121-.241,.23-.487,.329-.737l4.977-3.988h0Zm.012,.676c-.001,.161-.005,.322-.012,.483l-6.134,4.915c.234-.316,.445-.644,.634-.982l5.512-4.416h0Zm-.023,.705c-.01,.168-.023,.336-.039,.504l-15.185,12.169c-.167-.021-.335-.045-.502-.072l6.609-5.296c.465-.255,.913-.553,1.341-.896,.428-.343,.817-.716,1.166-1.113l6.609-5.296h0Zm-.063,.736c-.02,.178-.044,.356-.071,.533l-14.325,11.478c-.178-.012-.356-.028-.533-.047l14.929-11.965h0Zm-.11,.775c-.032,.188-.068,.374-.109,.561l-13.36,10.706c-.19-.001-.381-.007-.571-.016l14.039-11.251h0Zm-.167,.82c-.047,.199-.098,.397-.154,.594l-12.262,9.831c-.207,.012-.413,.019-.62,.021l13.036-10.446h0Zm-.237,.873c-.069,.225-.144,.449-.225,.671l-10.985,8.791c-.227,.029-.454,.053-.682,.071l11.891-9.532h0Zm-.34,.975c-.079,.202-.164,.402-.253,.6l-9.637,7.723c-.219,.045-.44,.084-.661,.118l10.55-8.441h0Zm-.401,.919c-.123,.255-.253,.507-.393,.755l-7.93,6.355c-.267,.08-.535,.151-.804,.214l9.127-7.324h0Zm-.626,1.154c-.188,.309-.389,.612-.603,.908l-5.636,4.517c-.336,.144-.675,.275-1.018,.39l7.257-5.816h0Zm-1.021,1.456c-.608,.756-1.307,1.458-2.096,2.09-.789,.632-1.626,1.161-2.497,1.59l4.592-3.68h0Zm-12.981,4.855c-.159-.029-.318-.06-.476-.094l5.512-4.416c.372-.11,.739-.245,1.098-.405l-6.134,4.915h0Zm-.682-.141c-.15-.035-.3-.073-.449-.113l4.977-3.988c.264-.042,.528-.095,.79-.16l-5.318,4.261h0Zm-.646-.167c-.144-.041-.287-.084-.429-.13l4.62-3.702c.221-.011,.442-.03,.661-.056l-4.852,3.889h0Zm-.617-.192c-.138-.046-.274-.095-.41-.146l4.358-3.493c.194,.009,.388,.011,.583,.007l-4.531,3.631h0Zm-.59-.214c-.13-.05-.258-.103-.387-.158l4.158-3.332c.052,.007,.104,.013,.156,.019,.121,.013,.242,.024,.364,.033l-4.291,3.438h0Zm-.559-.232c-.127-.056-.254-.115-.38-.175l3.995-3.202c.162,.034,.325,.063,.489,.088l-4.104,3.289h0Zm-.545-.256c-.121-.06-.241-.122-.36-.186l3.865-3.097c.148,.042,.298,.081,.447,.115l-3.952,3.167h0Zm-.518-.271c-.116-.064-.231-.13-.345-.197l3.758-3.011c.138,.05,.277,.097,.417,.14l-3.829,3.069h0Zm-.497-.288c-.112-.068-.223-.138-.334-.21l3.67-2.94c.13,.057,.261,.111,.393,.162l-3.728,2.988h0Zm-.484-.309c-.104-.07-.208-.141-.311-.214l3.597-2.882c.119,.062,.238,.121,.359,.177l-3.646,2.919h0Zm-.45-.315c-.106-.078-.212-.158-.317-.239l3.536-2.833c.118,.071,.237,.14,.358,.206l-3.577,2.866h0Zm-.451-.344c-.105-.083-.208-.168-.311-.255l3.486-2.794c.113,.079,.228,.155,.344,.228l-3.52,2.821h0Zm-.439-.365c-.1-.087-.2-.176-.297-.266l3.448-2.763c.106,.084,.214,.166,.323,.245l-3.474,2.784h0Zm-.42-.38c-.096-.091-.191-.183-.284-.277l3.42-2.74c.1,.09,.201,.177,.303,.261l-3.439,2.756h0Zm-.402-.395c-.092-.094-.182-.19-.272-.287l3.401-2.725c.093,.095,.188,.187,.284,.277l-3.413,2.735h0Zm-.383-.41c-.087-.098-.173-.196-.259-.297l3.391-2.718c.087,.1,.175,.197,.266,.292l-3.398,2.722h0Zm-.366-.424c-.044-.054-.089-.108-.133-.163-.038-.048-.076-.096-.114-.144l3.39-2.717c.037,.049,.075,.097,.113,.145,.044,.055,.088,.109,.133,.162l-3.39,2.717h0Zm-.348-.438c-.079-.105-.157-.21-.234-.317l3.396-2.722c.074,.108,.15,.216,.228,.322l-3.391,2.717h0Zm-.33-.453c-.07-.101-.139-.202-.206-.304l3.412-2.734c.062,.105,.127,.209,.195,.313l-3.401,2.725h0Zm-.297-.444c-.067-.104-.132-.208-.195-.313l3.434-2.752c.057,.109,.117,.218,.178,.326l-3.417,2.739h0Zm-.281-.457c-.063-.107-.124-.214-.184-.322l3.466-2.778c.051,.114,.104,.228,.16,.341l-3.443,2.759h0Zm-.264-.47c-.059-.11-.116-.221-.172-.332l3.508-2.811c.044,.119,.092,.237,.141,.355l-3.477,2.787h0Zm-.247-.484c-.055-.114-.109-.229-.161-.344l3.56-2.852c.038,.125,.079,.25,.123,.374l-3.522,2.823h0Zm-.228-.495c-.051-.118-.1-.236-.148-.355l3.624-2.904c.031,.131,.066,.261,.103,.391l-3.578,2.867h0Zm-.212-.516c-.047-.121-.092-.243-.135-.365l3.702-2.967c.023,.137,.05,.274,.079,.41l-3.646,2.922h0Zm-.193-.532c-.042-.125-.083-.251-.122-.376l3.797-3.043c.015,.144,.032,.287,.054,.431l-3.729,2.989h0Zm-.173-.548c-.037-.129-.073-.258-.107-.388l3.913-3.136c.004,.151,.012,.303,.024,.454l-3.83,3.07h0Zm-.152-.565c-.032-.133-.063-.267-.092-.4l4.054-3.249c-.007,.16-.01,.32-.009,.481l-3.954,3.168h0Zm-.129-.583c-.028-.139-.053-.279-.076-.418l4.231-3.391c-.006,.046-.011,.092-.016,.139-.014,.127-.025,.254-.034,.381l-4.104,3.289h0Zm-.107-.607c-.021-.141-.04-.281-.057-.422l4.452-3.568c-.039,.182-.072,.365-.1,.548l-4.295,3.442h0Zm-.079-.617c-.015-.147-.028-.295-.039-.442l4.746-3.803c-.064,.202-.122,.406-.172,.612l-4.534,3.634h0Zm-.052-.644c-.009-.153-.015-.306-.019-.459l5.158-4.133c-.104,.23-.198,.463-.282,.699l-4.858,3.893h0Zm-.022-.669c-.001-.159,0-.318,.004-.477l5.824-4.666c-.185,.284-.352,.577-.502,.876l-5.325,4.267h0Zm6.96-.851c.016-.15,.038-.299,.065-.447l6.818-5.463c.15,.006,.301,.017,.451,.034l.085,.01-7.427,5.952c.003-.028,.006-.057,.009-.086h0Zm.115-.7c.045-.204,.099-.405,.163-.604l5.721-4.585c.208-.019,.417-.028,.625-.027l-6.509,5.216h0Zm.265-.899c.093-.251,.202-.496,.326-.735l4.195-3.362c.261-.069,.524-.122,.789-.158l-5.31,4.255h0Zm.543-1.122c.294-.485,.655-.938,1.08-1.346l.924-.741c.49-.327,1.012-.58,1.549-.762l-3.553,2.848h0Zm6.721-3.114c.159,.025,.318,.056,.475,.093l-8.159,6.539c-.002-.162,.002-.323,.013-.484l7.671-6.147h0Zm.678,.143c.143,.038,.285,.081,.426,.129l-8.749,7.013c-.016-.148-.027-.297-.033-.446l8.356-6.696h0Zm.607,.194c.131,.049,.261,.102,.389,.159l-9.225,7.393c-.028-.138-.052-.277-.071-.416l8.907-7.136h0Zm.557,.237c.12,.058,.238,.119,.355,.184l-9.607,7.699c-.038-.128-.073-.257-.102-.387l9.354-7.496h0Zm.51,.273c.11,.066,.219,.135,.327,.207l-9.905,7.938c-.047-.121-.091-.242-.131-.364l9.709-7.78h0Zm.469,.306c.102,.073,.202,.149,.301,.228l-10.125,8.114c-.056-.114-.108-.228-.157-.343l9.981-7.999h0Zm.432,.336c.094,.079,.186,.162,.276,.248l-10.273,8.233c-.064-.107-.124-.215-.181-.324l10.178-8.157h0Zm.396,.364c.093,.092,.183,.188,.271,.287l-10.355,8.299c-.077-.108-.151-.217-.221-.327l10.305-8.258h0Zm.38,.412c.039,.047,.079,.094,.117,.142,.044,.055,.087,.11,.129,.166l-10.364,8.306c-.045-.053-.09-.107-.134-.162-.039-.048-.076-.096-.113-.145l10.366-8.307h0Zm.344,.442c.077,.108,.151,.217,.22,.328l-10.301,8.255c-.093-.092-.184-.188-.272-.286l10.353-8.297h0Zm.307,.471c.068,.115,.133,.232,.194,.35l-10.162,8.144c-.101-.085-.202-.173-.299-.265l10.267-8.228h0Zm.269,.502c.059,.123,.114,.247,.165,.372l-9.944,7.969c-.111-.077-.22-.158-.327-.242l10.106-8.099h0Zm.229,.534c.05,.131,.095,.263,.135,.396l-9.643,7.727c-.121-.069-.24-.142-.357-.218l9.864-7.905h0Zm.186,.568c.039,.14,.073,.281,.102,.422l-9.248,7.411c-.132-.06-.262-.124-.39-.192l9.536-7.642h0Zm.138,.607c.026,.147,.047,.294,.063,.442l-8.758,7.018c-.141-.048-.28-.101-.418-.158l9.112-7.302h0Zm.082,.64c.012,.151,.019,.302,.021,.453l-8.175,6.547c-.146-.034-.291-.074-.433-.118l8.587-6.882h0Zm.02,.669c-.004,.166-.013,.333-.029,.498l-7.437,5.96c-.166-.021-.331-.048-.494-.081l7.96-6.377h0Zm-.056,.732c-.024,.185-.056,.368-.096,.551l-6.522,5.226c-.186-.001-.373-.01-.558-.026l7.176-5.751h0Zm-.159,.814c-.056,.214-.122,.425-.2,.634l-5.327,4.269c-.22,.03-.441,.049-.662,.057l6.188-4.959h0Zm-.325,.947c-.12,.28-.26,.553-.419,.816l-3.562,2.854c-.292,.098-.588,.176-.888,.232l4.869-3.902h0Zm-.722,1.271c-.342,.471-.751,.905-1.227,1.286-.476,.382-.988,.687-1.523,.918l2.75-2.204h0Zm-13.173,15.798c11.011,4.339,23.453-1.07,27.792-12.08,4.339-11.011-1.07-23.453-12.08-27.792-11.011-4.339-23.453,1.07-27.792,12.08-4.339,11.01,1.07,23.453,12.08,27.792h0Z"/>
      <path class="cls-2" d="M113.341,55.215c12.1,6.075,20.593,16.479,24.542,28.39,3.949,11.911,3.354,25.328-2.721,37.429-6.075,12.101-16.48,20.593-28.39,24.543-11.911,3.949-25.329,3.354-37.429-2.721-12.101-6.075-20.594-16.479-24.543-28.39-3.949-11.911-3.353-25.328,2.721-37.429,6.075-12.101,16.48-20.593,28.391-24.542,11.911-3.949,25.328-3.354,37.429,2.721h0ZM43.888,91.819l-.331-.055c-.157,1.028-.279,2.058-.368,3.087l.333,.024c-.039,.452-.07,.904-.096,1.356l-.335-.024c-.067,1.15-.092,2.299-.077,3.445l.336-.009c.006,.454,.02,.907,.039,1.359l-.338,.009c.05,1.178,.142,2.352,.276,3.519l.337-.043c.052,.45,.111,.9,.176,1.348l-.338,.043c.164,1.138,.368,2.27,.612,3.391l.333-.077c.097,.443,.198,.885,.307,1.324l-.332,.077c.248,1.007,.528,2.005,.84,2.993l.327-.108c.136,.432,.279,.862,.428,1.29l-.327,.108c.376,1.085,.791,2.158,1.244,3.214l.316-.141c.179,.416,.363,.831,.553,1.242l-.316,.141c.494,1.068,1.026,2.119,1.598,3.15l.301-.173c.22,.396,.443,.791,.674,1.181l-.301,.172c.584,.988,1.204,1.957,1.859,2.904l.284-.203c.258,.373,.52,.742,.789,1.108l-.284,.202c.613,.834,1.254,1.65,1.923,2.447l.266-.23c.291,.347,.586,.691,.888,1.03l-.266,.229c.761,.857,1.556,1.689,2.383,2.494l.243-.256c.324,.316,.652,.628,.987,.936l-.242,.256c.863,.794,1.759,1.56,2.687,2.296l.216-.28c.354,.281,.713,.559,1.076,.831l-.215,.279c.916,.685,1.861,1.34,2.835,1.965l.187-.3c.38,.244,.765,.485,1.154,.72l-.187,.299c.882,.532,1.788,1.04,2.714,1.521l.16-.318c.201,.104,.401,.211,.604,.313,.203,.102,.407,.199,.611,.297l-.16,.318c1.043,.505,2.095,.97,3.155,1.394l.127-.331c.422,.169,.845,.332,1.269,.488l-.127,.332c1.113,.41,2.233,.776,3.359,1.099l.092-.342c.437,.125,.874,.245,1.312,.357l-.092,.342c1.12,.287,2.243,.532,3.37,.737l.058-.348c.447,.081,.894,.156,1.341,.224l-.058,.348c1.03,.157,2.06,.279,3.09,.368l.025-.348c.452,.039,.904,.071,1.357,.097l-.025,.349c1.151,.067,2.301,.092,3.448,.076l-.009-.347c.454-.006,.907-.019,1.36-.039l.009,.348c1.179-.05,2.353-.143,3.521-.278l-.044-.344c.451-.052,.9-.11,1.349-.175l.044,.343c1.139-.164,2.27-.369,3.392-.613l-.078-.335c.443-.096,.885-.198,1.325-.307l.077,.333c1.007-.249,2.005-.53,2.993-.842l-.108-.324c.432-.137,.862-.279,1.291-.427l.107,.323c1.085-.377,2.157-.792,3.213-1.245l-.138-.309c.417-.178,.831-.362,1.243-.552l.137,.307c1.067-.494,2.117-1.026,3.147-1.598l-.167-.29c.397-.219,.791-.443,1.181-.674l.166,.289c.987-.584,1.955-1.204,2.901-1.859l-.193-.27c.372-.257,.742-.52,1.107-.788l.192,.269c.833-.612,1.648-1.253,2.444-1.921l-.217-.251c.347-.291,.69-.586,1.03-.887l.216,.249c.856-.761,1.687-1.554,2.491-2.381l-.239-.226c.316-.324,.628-.652,.936-.986l.238,.226c.793-.862,1.558-1.756,2.293-2.683l-.26-.2c.281-.354,.559-.712,.831-1.076l.259,.2c.684-.914,1.338-1.858,1.962-2.831l-.278-.174c.244-.38,.485-.764,.719-1.154l.277,.173c.532-.881,1.038-1.785,1.519-2.71l-.296-.148c.104-.201,.21-.401,.312-.604,.102-.203,.199-.407,.297-.611l.296,.149c.505-1.041,.969-2.091,1.393-3.15l-.309-.118c.169-.422,.331-.845,.488-1.269l.309,.119c.41-1.111,.776-2.23,1.099-3.353l-.321-.087c.125-.436,.244-.874,.356-1.312l.323,.087c.288-1.118,.533-2.241,.737-3.366l-.33-.055c.081-.446,.155-.894,.224-1.341l.331,.055c.157-1.028,.28-2.058,.369-3.087l-.334-.024c.039-.452,.07-.904,.096-1.356l.337,.025c.067-1.15,.093-2.3,.078-3.446l-.34,.009c-.006-.454-.02-.907-.039-1.359l.341-.009c-.049-1.178-.14-2.352-.275-3.52l-.341,.044c-.052-.451-.111-.9-.176-1.348l.343-.044c-.164-1.139-.367-2.27-.611-3.392l-.339,.079c-.097-.443-.199-.885-.307-1.324l.339-.079c-.248-1.007-.529-2.006-.84-2.994l-.334,.111c-.137-.432-.28-.862-.428-1.29l.335-.111c-.377-1.086-.791-2.158-1.244-3.215l-.325,.145c-.179-.417-.362-.831-.553-1.242l.324-.145c-.493-1.068-1.025-2.12-1.597-3.151l-.31,.178c-.22-.396-.444-.791-.675-1.181l.31-.178c-.584-.989-1.204-1.958-1.859-2.905l-.293,.209c-.258-.372-.521-.742-.789-1.108l.293-.21c-.613-.835-1.254-1.651-1.922-2.448l-.276,.238c-.291-.347-.586-.691-.888-1.03l.275-.238c-.761-.857-1.556-1.69-2.383-2.496l-.252,.266c-.324-.316-.652-.628-.987-.936l.252-.266c-.863-.794-1.759-1.561-2.687-2.297l-.225,.291c-.355-.281-.713-.559-1.077-.831l.225-.291c-.916-.685-1.862-1.341-2.836-1.966l-.195,.313c-.381-.244-.764-.485-1.154-.719l.195-.313c-.883-.532-1.788-1.04-2.715-1.522l-.167,.333c-.201-.104-.401-.211-.604-.313-.203-.102-.408-.199-.612-.297l.167-.333c-1.043-.505-2.095-.97-3.156-1.395l-.133,.347c-.422-.169-.845-.332-1.27-.488l.133-.347c-1.113-.41-2.234-.776-3.36-1.099l-.097,.358c-.437-.125-.874-.245-1.313-.357l.097-.358c-2.586-.664-5.196-1.104-7.804-1.329l-.027,.365c-.452-.039-.904-.071-1.356-.097l.026-.366c-1.151-.066-2.302-.091-3.45-.075l.01,.364c-.454,.006-.907,.02-1.359,.038l-.01-.364c-1.179,.05-2.354,.143-3.522,.278l.046,.36c-.451,.052-.9,.11-1.349,.175l-.047-.358c-1.139,.165-2.271,.369-3.394,.614l.082,.35c-.443,.096-.885,.198-1.325,.307l-.081-.348c-1.007,.249-2.006,.53-2.994,.843l.112,.338c-.433,.137-.863,.279-1.291,.427l-.111-.337c-1.086,.377-2.158,.793-3.214,1.247l.143,.322c-.416,.178-.831,.362-1.242,.552l-.143-.32c-1.068,.494-2.118,1.027-3.149,1.599l.173,.301c-.397,.219-.791,.443-1.181,.674l-.172-.3c-.987,.584-1.955,1.205-2.902,1.86l.2,.28c-.372,.257-.742,.52-1.108,.789l-.199-.279c-.834,.613-1.649,1.254-2.444,1.923l.224,.259c-.347,.291-.69,.586-1.03,.887l-.223-.257c-.856,.761-1.686,1.555-2.491,2.382l.246,.233c-.315,.324-.628,.652-.936,.986l-.245-.232c-.793,.862-1.558,1.757-2.292,2.685l.266,.205c-.281,.354-.558,.712-.83,1.076l-.265-.204c-.683,.915-1.338,1.859-1.962,2.832l.284,.177c-.244,.38-.485,.764-.719,1.153l-.283-.177c-.532,.882-1.038,1.786-1.519,2.711l.3,.151c-.104,.201-.21,.401-.312,.604-.102,.203-.198,.407-.297,.611l-.3-.151c-.504,1.041-.968,2.092-1.392,3.151l.312,.119c-.168,.422-.331,.845-.487,1.269l-.313-.12c-.409,1.111-.775,2.23-1.097,3.354l.323,.087c-.125,.436-.244,.874-.357,1.312l-.324-.088c-.287,1.118-.532,2.241-.736,3.366l.331,.055c-.081,.446-.155,.894-.224,1.341h0Zm50.426-41.026l1.113,.081c-.371-.031-.742-.058-1.113-.081h0Zm4.229,.821l.061-.363,1.341,.224-.061,.364c-.447-.081-.894-.156-1.341-.224h0Zm4.795,.602l1.187,.322c-.395-.113-.791-.22-1.187-.322h0Zm17.213,8.315l.765,.59c-.252-.199-.507-.395-.765-.59h0Zm3.582,2.995l.905,.857c-.298-.289-.599-.575-.905-.857h0Zm3.5,3.585l.536,.619c-.177-.208-.355-.414-.536-.619h0Z"/>
      <path class="cls-1" d="M55.332,126.149l-.539-.732c-6.297-8.726-9.118-19.092-8.56-29.274,.641-11.708,5.749-23.172,15.172-31.616,7.443-6.67,16.464-10.457,25.698-11.438l.904-.087,.004,.805,.075,13.749-.445,.003c-5.975,.829-11.777,3.385-16.608,7.714-6.455,5.785-9.955,13.639-10.394,21.66-.36,6.563,1.33,13.238,5.124,18.984l.44,.491-.067,.06-.602,.539-9.603,8.605-.599,.537h0Zm31.774-72.254c-9.043,.977-17.876,4.696-25.166,11.23-9.258,8.296-14.276,19.559-14.906,31.062-.546,9.977,2.208,20.133,8.36,28.692l9.63-8.629c-3.842-5.868-5.551-12.671-5.185-19.361,.451-8.227,4.039-16.281,10.659-22.214,4.859-4.354,10.676-6.96,16.679-7.86l-.071-12.92h0Zm8.795,75.779l.905-.005c5.805-.897,11.424-3.431,16.124-7.643,6.455-5.785,9.955-13.639,10.394-21.66,.367-6.708-1.406-13.533-5.379-19.363l-.161-.18,10.812-9.689,.553,.719c6.312,8.732,9.14,19.11,8.582,29.303-.641,11.708-5.749,23.172-15.172,31.615-6.751,6.05-18.46,11.458-26.578,11.501l-.08-14.597h0Zm.909,.806l.07,12.921c9.035-.981,17.859-4.699,25.143-11.227,9.257-8.296,14.276-19.559,14.906-31.063,.547-9.987-2.214-20.155-8.381-28.721l-9.629,8.628c3.856,5.875,5.572,12.69,5.205,19.391-.451,8.226-4.039,16.281-10.66,22.213-4.852,4.348-10.66,6.953-16.655,7.857h0Z"/>
      <path class="cls-2" d="M107.629,8.744c9.937,1.799,19.205,5.144,27.602,9.74l-1.68,2.167c-8.047-4.353-16.912-7.525-26.405-9.244-24.085-4.361-47.656,1.454-66.297,14.379C22.21,38.712,8.5,58.749,4.14,82.833c-4.361,24.084,1.454,47.656,14.38,66.297,2.389,3.445,5.02,6.721,7.876,9.8l-1.679,2.167c-3.059-3.269-5.874-6.754-8.42-10.426C2.976,131.462-3.017,107.17,1.477,82.351,5.97,57.532,20.099,36.883,39.308,23.563,58.518,10.243,82.809,4.251,107.629,8.744h0Zm69.642,120.932c-6.566,18.236-18.614,33.432-33.867,44.009-19.21,13.32-43.501,19.312-68.32,14.819-9.937-1.799-19.205-5.144-27.602-9.74l1.679-2.167c8.048,4.353,16.912,7.525,26.405,9.244,24.084,4.36,47.656-1.454,66.297-14.38,14.719-10.206,26.362-24.848,32.757-42.413l2.651,.628h0Z"/>
      <path class="cls-2" d="M94.358,82.033c4.586,.83,8.402,3.441,10.863,6.991,2.461,3.55,3.569,8.038,2.738,12.625-.83,4.586-3.441,8.402-6.99,10.864-3.55,2.461-8.039,3.569-12.625,2.738-4.586-.83-8.402-3.441-10.863-6.991-2.462-3.55-3.569-8.039-2.739-12.625,.83-4.586,3.441-8.402,6.991-10.864,3.55-2.461,8.039-3.569,12.625-2.738h0Zm10.504,7.24c-2.397-3.458-6.114-6.001-10.582-6.81-4.468-.809-8.84,.27-12.298,2.667-3.458,2.398-6.001,6.114-6.81,10.582-.809,4.468,.27,8.84,2.667,12.298,2.398,3.458,6.115,6.001,10.582,6.81,4.468,.809,8.84-.27,12.298-2.667,3.458-2.398,6.001-6.114,6.81-10.582,.809-4.468-.27-8.84-2.667-12.298h0Z"/>
      <path class="cls-1" d="M143.27,156.371l-.489,.434-5.653-6.37,.489-.434,5.653,6.37h0ZM62.069,29.308l.613-.229,2.896,7.761-.604,.262-2.905-7.795h0Zm-1.431,3.15l.593-.279,2.369,5.548-.593,.281-2.368-5.55h0Zm-2.179,1.068l.587-.288,2.613,5.435-.588,.289-2.612-5.435h0Zm-2.038,1.097l.577-.31,2.828,5.359-.577,.31-2.828-5.359h0Zm-2.061,1.193l.566-.329,3,5.26-.566,.329-3-5.26h0Zm-3.027-.75l.559-.34,4.306,7.076-.559,.341-4.306-7.076h0Zm-.877,3.247l.539-.371,3.393,5.025-.541,.368-3.391-5.022h0Zm-1.92,1.384l.522-.394,3.61,4.867-.53,.386-3.602-4.858h0Zm-1.852,1.404l.515-.404,3.784,4.73-.517,.402-3.782-4.727h0Zm-1.85,1.501l.51-.422,3.881,4.628-.494,.43-3.897-4.636h0Zm-9.627,103.699l.412,.51,4.559-3.947-.41-.51-4.561,3.948h0Zm-1.561-1.947l.399,.526,4.698-3.78-.395-.523-4.702,3.777h0Zm-1.465-1.971l.386,.533,4.761-3.709-.387-.528-4.76,3.704h0Zm-3.124-.734l.399,.519,6.472-4.978-.365-.549-6.506,5.008h0Zm.383-3.392l.353,.558,4.951-3.449-.347-.56-4.958,3.451h0Zm-1.243-2.085l.328,.564,5.099-3.221-.328-.569-5.1,3.226h0Zm-1.122-2.024l.32,.592,5.206-3.046-.31-.577-5.216,3.031h0Zm-1.088-2.12l.293,.588,5.31-2.86-.291-.587-5.312,2.859h0Zm-2.909-.489l.311,.576,7.407-3.998-.275-.596-7.443,4.018h0Zm1.136-3.386l.258,.602,5.439-2.612-.256-.603-5.442,2.613h0Zm-.905-2.244l.237,.611,5.548-2.367-.236-.611-5.549,2.368h0Zm-.792-2.159l.219,.617,5.629-2.164-.217-.618-5.63,2.165h0Zm-.749-2.262l.198,.624,5.699-1.971-.197-.625-5.701,1.972h0Zm-2.863-1.408l.21,.62,7.911-2.671-.177-.631-7.944,2.682h0Zm1.585-3.116l.175,.631,5.8-1.657-.156-.636-5.819,1.662h0Zm-.536-2.364l.147,.638,5.874-1.399-.136-.64-5.885,1.402h0Zm-.441-2.263l.123,.643,5.927-1.186-.116-.644-5.934,1.187h0Zm-.358-2.361l.101,.647,5.944-.981-.096-.647-5.949,.981h0Zm-2.591-1.697l.113,.645,8.229-1.445-.075-.652-8.267,1.452h0Zm2.079-2.845l.057,.653,5.983-.761-.054-.653-5.986,.762h0Zm-.158-2.418l.035,.654,6.009-.495-.034-.654-6.011,.494h0Zm-.077-2.302l.015,.655,6.022-.276-.013-.655-6.023,.276h0Zm-.008-2.386l-.003,.655,6.028-.071,.008-.655-6.032,.071h0Zm-2.461-2.317l.007,.655,8.535-.087,.028-.657-8.57,.09h0Zm2.678-2.463l-.043,.654,6.019,.223,.058-.656-6.034-.221h0Zm.233-2.404l-.069,.651,6.009,.49,.071-.65-6.01-.491h0Zm.289-2.279l-.089,.648,5.986,.708,.091-.648-5.988-.708h0Zm.368-2.352l-.104,.647,5.962,.912,.109-.646-5.966-.913h0Zm-1.82-2.443l-.09,.648,8.174,1.135,.133-.642-8.216-1.142h0Zm2.765-2.082l-.15,.637,5.931,1.108,.153-.637-5.934-1.108h0Zm.606-2.354l-.17,.629,5.872,1.376,.173-.632-5.875-1.373h0Zm.633-2.217l-.177,.631,5.818,1.585,.192-.626-5.833-1.59h0Zm.755-2.266l-.211,.62,5.76,1.782,.212-.62-5.762-1.782h0Zm-1.354-3.027l-.204,.622,7.907,2.593,.226-.616-7.93-2.599h0Zm3.107-1.555l-.251,.604,5.635,2.148,.253-.605-5.638-2.147h0Zm.981-2.218l-.265,.599,5.525,2.391,.265-.598-5.525-2.391h0Zm.991-2.081l-.286,.589,5.443,2.593,.286-.588-5.443-2.593h0Zm1.108-2.13l-.306,.579,5.347,2.786,.306-.578-5.346-2.786h0Zm-.804-3.213l-.3,.582,7.362,3.797,.332-.568-7.394-3.811h0Zm3.298-1.047l-.347,.555,5.227,3.011,.349-.555-5.229-3.011h0Zm1.32-2.036l-.357,.549,5.086,3.24,.356-.549-5.085-3.24h0Zm1.331-1.893l-.376,.536,4.984,3.445,.376-.536-4.985-3.445h0Zm1.43-1.905l-.394,.523,4.866,3.604,.395-.523-4.866-3.604h0Zm-.385-3.095l-.404,.515,6.515,5.116,.404-.515-6.514-5.116h0Zm3.329-.485l-.432,.492,4.585,3.966,.43-.494-4.583-3.964h0Zm1.602-1.742l-.454,.472,4.403,4.163,.446-.481-4.396-4.154h0Zm1.614-1.672l-.463,.463,4.246,4.319,.461-.465-4.244-4.317h0Zm1.71-1.659l-.48,.456,4.134,4.403,.486-.439-4.14-4.42h0Zm.057-3.395l-.489,.434,5.653,6.37,.49-.435-5.653-6.37h0Zm119.9,25.122l-.311-.576-7.407,3.999,.275,.596,7.443-4.018h0Zm-1.136,3.386l-.258-.602-5.439,2.612,.256,.603,5.442-2.613h0Zm.905,2.244l-.238-.61-5.548,2.367,.236,.611,5.549-2.368h0Zm.792,2.16l-.218-.618-5.629,2.164,.217,.618,5.63-2.164h0Zm.749,2.262l-.198-.624-5.699,1.971,.197,.625,5.701-1.972h0Zm2.863,1.408l-.209-.62-7.911,2.671,.177,.631,7.944-2.682h0Zm-1.585,3.116l-.175-.631-5.801,1.657,.156,.636,5.819-1.663h0Zm.536,2.364l-.147-.638-5.874,1.399,.136,.641,5.885-1.402h0Zm.441,2.262l-.123-.643-5.927,1.186,.116,.644,5.933-1.187h0Zm.359,2.361l-.102-.647-5.944,.981,.096,.647,5.949-.982h0Zm2.591,1.697l-.113-.645-8.229,1.445,.074,.652,8.267-1.452h0Zm-2.079,2.845l-.056-.653-5.984,.761,.054,.653,5.986-.762h0Zm.158,2.418l-.035-.654-6.009,.495,.033,.654,6.011-.494h0Zm.078,2.301l-.015-.654-6.022,.276,.014,.655,6.024-.276h0Zm.008,2.385l.003-.655-6.028,.071-.007,.655,6.032-.071h0Zm2.461,2.317l-.007-.655-8.535,.088-.028,.657,8.57-.09h0Zm-2.678,2.463l.043-.653-6.019-.223-.058,.655,6.034,.221h0Zm-.233,2.404l.069-.651-6.009-.491-.071,.651,6.01,.491h0Zm-.289,2.279l.089-.648-5.986-.708-.091,.648,5.987,.708h0Zm-.367,2.352l.104-.646-5.962-.912-.109,.646,5.966,.912h0Zm1.82,2.444l.09-.648-8.174-1.135-.133,.642,8.216,1.142h0Zm-2.766,2.082l.15-.637-5.931-1.108-.153,.637,5.934,1.108h0Zm-.606,2.353l.17-.629-5.872-1.376-.173,.632,5.875,1.373h0Zm-.633,2.217l.177-.63-5.818-1.585-.192,.626,5.833,1.59h0Zm-.755,2.266l.211-.62-5.761-1.782-.212,.62,5.762,1.783h0Zm1.354,3.028l.204-.622-7.907-2.592-.226,.616,7.93,2.599h0Zm-3.107,1.555l.251-.604-5.635-2.148-.254,.605,5.638,2.147h0Zm-.981,2.218l.265-.599-5.525-2.391-.265,.598,5.524,2.391h0Zm-.991,2.081l.287-.589-5.443-2.593-.287,.589,5.443,2.593h0Zm-1.108,2.13l.306-.579-5.346-2.786-.306,.579,5.346,2.786h0Zm.804,3.213l.3-.582-7.362-3.798-.332,.568,7.394,3.811h0Zm-3.298,1.047l.347-.556-5.227-3.011-.349,.556,5.229,3.011h0Zm-1.32,2.036l.357-.549-5.086-3.24-.356,.549,5.085,3.24h0Zm-1.331,1.893l.376-.536-4.984-3.445-.376,.535,4.984,3.445h0Zm-1.43,1.904l.394-.523-4.866-3.604-.394,.523,4.866,3.604h0Zm.385,3.096l.404-.515-6.514-5.117-.404,.515,6.514,5.117h0Zm-3.329,.484l.432-.491-4.585-3.966-.43,.494,4.583,3.964h0Zm-1.602,1.743l.453-.472-4.403-4.163-.446,.481,4.396,4.154h0Zm-1.614,1.672l.463-.463-4.247-4.319-.46,.465,4.244,4.317h0Zm-1.71,1.659l.48-.456-4.134-4.403-.486,.439,4.14,4.421h0Zm-101.726-9.104l.434,.49-6.37,5.653-.434-.49,6.37-5.653h0Zm-2.382,6.336l-.457-.469,4.461-4.058,.458,.468-4.462,4.058h0Zm1.747,1.782l-.475-.459,4.311-4.215,.473,.454-4.309,4.219h0Zm1.783,1.689l-.484-.446,4.248-4.287,.479,.447-4.243,4.285h0Zm.357,3.189l-.468-.458,5.712-5.834,.502,.428-5.746,5.864h0Zm3.413,.023l-.512-.417,4.014-4.506,.514,.411-4.016,4.512h0Zm1.923,1.481l-.522-.393,3.805-4.68,.526,.393-3.809,4.68h0Zm1.876,1.355l-.55-.388,3.643-4.807,.536,.376-3.63,4.819h0Zm1.975,1.332l-.549-.361,3.47-4.933,.548,.358-3.47,4.935h0Zm.14,2.946l-.535-.377,4.851-6.879,.558,.344-4.874,6.912h0Zm3.497-.726l-.567-.328,3.24-5.09,.569,.325-3.242,5.092h0Zm2.12,1.165l-.578-.309,3.01-5.227,.579,.307-3.011,5.228h0Zm2.05,1.043l-.587-.291,2.817-5.332,.587,.289-2.818,5.333h0Zm2.157,1.012l-.596-.271,2.634-5.424,.597,.27-2.635,5.426h0Zm1.058,3.01l-.591-.281,3.592-7.538,.606,.25-3.607,7.569h0Zm3.282-1.203l-.606-.248,2.335-5.563,.613,.231-2.342,5.58h0Zm2.283,.814l-.616-.222,2.087-5.666,.62,.211-2.091,5.676h0Zm2.194,.707l-.624-.199,1.882-5.743,.626,.192-1.884,5.751h0Zm2.302,.636l-.63-.177,1.68-5.785,.631,.172-1.681,5.79h0Zm1.377,2.775l-.627-.189,2.413-7.999,.638,.152-2.424,8.036h0Zm3.072-1.726l-.641-.134,1.467-5.851,.642,.131-1.468,5.853h0Zm2.382,.444l-.645-.113,1.205-5.908,.645,.111-1.205,5.909h0Zm2.276,.351l-.648-.093,.99-5.947,.648,.091-.99,5.948h0Zm2.368,.291l-.651-.074,.787-5.977,.651,.07-.787,5.981h0Zm2.008,2.718l-.649-.085,1.101-8.464,.656,.05-1.107,8.498h0Zm2.763-2.367l-.654-.035,.494-6.003,.658,.02-.498,6.018h0Zm2.414,.055l-.654-.009,.228-6.025,.654,.007-.227,6.026h0Zm2.297-.016l-.655,.012,.008-6.028,.655-.013-.009,6.029h0Zm2.379-.085l-.654,.027-.197-6.028,.655-.031,.197,6.032h0Zm2.209,2.098l-.654,.012-.156-8.251,.653-.055,.157,8.294h0Zm2.397-2.499l-.651,.073-.395-6.02,.651-.077,.395,6.024h0Zm2.409-.322l-.645,.094-.668-5.994,.648-.097,.666,5.996h0Zm2.277-.365l-.647,.101-.883-5.965,.645-.117,.885,5.98h0Zm2.34-.48l-.641,.135-1.085-5.932,.64-.137,1.085,5.933h0Zm2.845,1.704l-.642,.129-1.634-8.159,.638-.152,1.638,8.182h0Zm1.914-2.9l-.63,.178-1.463-5.851,.631-.18,1.462,5.853h0Zm2.319-.71l-.626,.192-1.718-5.77,.626-.192,1.718,5.77h0Zm2.184-.736l-.618,.214-1.927-5.712,.618-.215,1.927,5.713h0Zm2.247-.847l-.611,.236-2.131-5.64,.611-.236,2.131,5.64h0Zm3.095,1.18l-.613,.229-2.895-7.761,.604-.263,2.905,7.795h0Zm1.431-3.15l-.593,.279-2.369-5.548,.593-.281,2.368,5.55h0Zm2.178-1.068l-.587,.288-2.612-5.434,.588-.289,2.612,5.435h0Zm2.038-1.097l-.577,.31-2.828-5.359,.577-.31,2.828,5.359h0Zm2.061-1.193l-.566,.329-3-5.26,.566-.329,3,5.26h0Zm3.027,.751l-.559,.34-4.306-7.076,.56-.34,4.306,7.077h0Zm.877-3.248l-.539,.371-3.392-5.024,.541-.368,3.391,5.022h0Zm1.92-1.383l-.522,.394-3.61-4.866,.53-.386,3.602,4.859h0Zm1.852-1.404l-.515,.405-3.783-4.73,.517-.402,3.782,4.727h0Zm1.85-1.501l-.51,.422-3.88-4.628,.493-.43,3.897,4.636h0Z"/>
      <polygon class="cls-1" points="71.186 85.973 78.944 90.073 79.506 92.383 77.328 93.186 69.544 89.08 68.984 86.822 71.186 85.973 71.186 85.973"/>
      <polygon class="cls-1" points="105.425 104.065 113.183 108.165 113.745 110.474 111.566 111.278 103.783 107.172 103.223 104.913 105.425 104.065 105.425 104.065"/>
      <polygon class="cls-1" points="78.575 119.136 82.676 111.378 84.985 110.817 85.789 112.995 81.682 120.778 79.424 121.338 78.575 119.136 78.575 119.136"/>
      <polygon class="cls-1" points="96.902 84.453 101.002 76.695 103.312 76.133 104.115 78.312 100.009 86.095 97.751 86.655 96.902 84.453 96.902 84.453"/>
      <path class="cls-2" d="M58.148,187.803c-11.312-4.06-23.283-11.63-30.908-18.244,0,0,6.911-8.537,9.116-11.264,9.496,8.355,18.066,13.156,27.59,16.597-2.902,6.396-4.566,10.294-5.799,12.911h0Z"/>
    </g>
  </g>
</svg>